<?xml version="1.0" standalone="no"?>
<!DOCTYPE svg PUBLIC "-//W3C//DTD SVG 20010904//EN"
 "http://www.w3.org/TR/2001/REC-SVG-20010904/DTD/svg10.dtd">
<svg version="1.0" xmlns="http://www.w3.org/2000/svg"
 width="2610.000000pt" height="1468.000000pt" viewBox="0 0 2610.000000 1468.000000"
 preserveAspectRatio="xMidYMid meet">

<g transform="translate(0.000000,1468.000000) scale(0.100000,-0.100000)"
fill="#000000" stroke="none">
<path d="M12670 9710 l0 -520 88 -1 c128 -1 375 -30 417 -49 11 -5 40 -12 65
-16 24 -3 51 -10 60 -14 8 -5 47 -18 85 -30 39 -12 84 -28 102 -36 17 -8 35
-14 40 -14 19 0 225 -111 299 -161 97 -67 292 -258 368 -361 31 -43 56 -81 56
-85 0 -3 7 -14 15 -23 17 -18 99 -183 110 -220 4 -14 11 -29 15 -35 19 -28 58
-161 84 -290 7 -33 15 -67 19 -75 25 -57 48 -620 28 -690 -5 -19 -14 -75 -20
-125 -12 -114 -31 -217 -41 -230 -4 -5 -11 -30 -15 -55 -4 -25 -11 -49 -15
-55 -4 -5 -11 -26 -15 -45 -4 -19 -11 -41 -16 -50 -5 -8 -18 -37 -29 -65 -62
-145 -146 -293 -212 -371 -118 -140 -244 -264 -267 -264 -5 0 -14 -6 -18 -12
-11 -17 -69 -58 -83 -58 -5 0 -10 -3 -10 -7 0 -14 -159 -99 -245 -132 -33 -12
-67 -26 -75 -30 -8 -4 -40 -14 -70 -21 -30 -7 -59 -16 -65 -20 -5 -5 -28 -11
-50 -15 -22 -4 -44 -11 -50 -15 -5 -4 -39 -11 -75 -15 -36 -4 -70 -11 -75 -15
-14 -12 -269 -32 -395 -33 -128 0 -389 20 -410 32 -9 5 -40 12 -70 16 -30 4
-75 13 -100 20 -25 8 -78 23 -117 35 -40 12 -75 26 -78 31 -4 5 -14 9 -23 9
-19 0 -225 100 -230 112 -2 5 -8 8 -12 8 -12 0 -135 84 -188 129 -103 85 -268
264 -281 304 -2 7 -7 14 -10 17 -11 10 -47 65 -71 113 -14 26 -28 47 -32 47
-5 0 -8 5 -8 11 0 5 -9 31 -21 57 -11 26 -27 63 -35 82 -8 19 -19 42 -24 51
-5 9 -12 33 -15 53 -4 20 -11 39 -16 41 -4 3 -11 27 -15 53 -4 26 -10 49 -14
52 -8 6 -26 105 -41 225 -5 44 -14 99 -19 123 -6 23 -10 90 -10 147 l0 105
-547 -2 -548 -3 4 -160 c2 -88 7 -194 12 -235 16 -145 56 -383 72 -420 3 -8
10 -35 16 -60 14 -67 41 -162 50 -185 5 -11 19 -49 31 -85 13 -36 31 -83 41
-106 11 -22 19 -44 19 -48 0 -8 92 -198 100 -206 8 -8 28 -42 45 -75 17 -34
37 -68 46 -75 3 -3 18 -26 33 -52 15 -27 32 -48 37 -48 5 0 9 -5 9 -11 0 -40
305 -369 444 -480 9 -7 31 -24 123 -99 7 -6 15 -10 17 -10 3 0 32 -19 63 -43
32 -24 65 -47 73 -50 8 -4 42 -23 75 -42 89 -51 276 -143 308 -150 15 -4 27
-11 27 -16 0 -5 8 -9 18 -9 9 -1 35 -9 57 -20 22 -11 47 -19 56 -20 8 0 19 -4
25 -9 8 -8 50 -21 169 -52 22 -6 49 -15 60 -19 11 -5 40 -12 65 -16 25 -3 50
-9 55 -13 22 -14 288 -56 450 -71 130 -12 554 -12 675 0 132 14 291 36 380 54
41 8 100 20 130 26 30 6 64 15 75 20 11 5 40 13 65 19 82 18 165 42 195 56 17
7 62 24 100 37 39 12 72 26 73 31 2 4 8 7 13 7 18 0 150 61 209 96 19 11 56
32 81 46 25 14 56 32 70 39 24 14 104 70 126 89 7 5 15 10 19 10 3 0 21 12 38
27 18 16 50 41 72 58 44 34 299 286 329 327 11 14 47 62 80 105 60 77 131 183
166 246 23 43 148 297 158 322 29 73 51 134 57 160 4 17 10 35 14 40 4 6 11
26 15 45 4 19 11 40 15 45 4 6 11 34 15 62 4 29 11 55 15 58 5 3 12 34 15 70
4 36 11 67 15 70 4 3 11 38 15 77 3 40 10 82 15 93 42 91 42 989 0 1080 -5 11
-12 51 -15 89 -4 38 -11 77 -16 85 -4 9 -12 41 -18 71 -12 69 -30 140 -40 160
-5 9 -12 31 -15 50 -8 39 -36 120 -46 135 -4 6 -10 24 -14 40 -15 62 -135 312
-209 435 -200 333 -523 662 -837 853 -76 46 -85 52 -90 57 -6 8 -214 110 -265
132 -22 9 -56 23 -77 32 -20 9 -43 16 -52 16 -9 0 -16 4 -16 9 0 5 -15 13 -32
16 -18 4 -37 11 -43 15 -5 4 -35 13 -65 19 -30 7 -64 17 -75 22 -11 5 -40 14
-65 19 -25 6 -72 18 -105 26 -107 27 -217 45 -365 60 -80 8 -175 19 -213 24
-37 6 -108 10 -157 10 l-90 0 0 -520z"/>
<path d="M21485 10150 c-104 -4 -191 -7 -193 -8 -1 -1 -1 -892 0 -1979 3
-1529 6 -1985 15 -2008 7 -16 19 -68 27 -115 18 -108 35 -181 45 -200 5 -9 12
-31 16 -50 8 -36 11 -44 38 -98 9 -19 17 -39 17 -45 0 -7 21 -52 46 -102 26
-49 52 -100 58 -112 6 -13 14 -23 19 -23 4 0 7 -5 7 -10 0 -12 41 -73 53 -78
4 -2 7 -8 7 -14 0 -5 17 -31 38 -56 20 -26 42 -53 47 -61 13 -19 207 -213 226
-226 8 -5 37 -29 65 -52 29 -24 56 -43 62 -43 6 0 12 -3 14 -7 5 -12 66 -53
78 -53 5 0 10 -4 10 -9 0 -9 317 -171 333 -171 5 0 23 -6 40 -14 49 -22 247
-84 292 -92 22 -4 45 -10 50 -14 6 -4 35 -11 65 -14 30 -4 64 -11 75 -16 46
-20 328 -48 498 -49 l127 -1 0 529 0 529 -77 5 c-118 7 -275 27 -298 37 -11 5
-40 12 -65 16 -24 3 -51 10 -60 14 -8 5 -44 18 -80 31 -70 24 -203 89 -208
101 -2 5 -8 8 -14 8 -26 0 -154 111 -252 220 -19 21 -98 148 -118 190 -75 158
-103 271 -118 490 -5 63 -9 885 -9 1827 -1 1358 -4 1713 -13 1720 -16 10 -603
12 -863 3z"/>
<path d="M88 10145 c-5 -5 -8 -1277 -8 -2827 l0 -2818 2050 0 2050 0 5 22 c3
13 4 253 3 533 l-3 510 -1502 3 -1503 2 0 2285 0 2285 -423 0 c-233 0 -477 3
-543 6 -65 4 -122 3 -126 -1z"/>
<path d="M4818 10143 l-28 -4 0 -525 0 -524 2088 2 2087 3 3 521 2 521 -31 7
c-34 7 -4076 6 -4121 -1z"/>
<path d="M15792 10143 c-9 -3 -5 -19 15 -56 16 -29 30 -54 33 -57 9 -9 30 -44
40 -67 5 -12 20 -39 33 -60 41 -65 167 -293 167 -303 0 -4 3 -10 8 -12 9 -4
112 -188 112 -200 0 -4 4 -8 9 -8 5 0 15 -15 22 -32 7 -18 38 -73 67 -123 30
-49 58 -99 63 -110 5 -11 18 -33 28 -50 18 -28 36 -60 87 -155 11 -19 22 -37
25 -40 3 -3 9 -12 12 -20 4 -8 18 -33 31 -55 12 -22 35 -62 49 -89 15 -27 31
-54 36 -60 5 -6 24 -40 44 -76 62 -115 72 -134 80 -144 7 -10 45 -76 141 -246
24 -41 53 -93 65 -115 33 -58 91 -158 102 -175 5 -8 13 -25 19 -37 5 -12 20
-39 33 -60 13 -21 41 -69 62 -108 21 -38 41 -72 44 -75 4 -3 12 -16 19 -30 6
-14 27 -52 47 -85 19 -33 40 -71 47 -85 7 -14 28 -52 48 -85 19 -33 49 -87 65
-120 17 -33 33 -62 36 -65 3 -3 9 -12 12 -20 4 -8 18 -33 30 -55 13 -22 34
-60 47 -85 14 -25 27 -47 30 -50 3 -3 11 -16 18 -30 7 -14 27 -50 45 -80 l32
-55 3 -1132 3 -1133 545 0 544 0 3 1173 c1 644 1 1208 1 1252 -1 86 0 84 -120
290 -19 33 -40 71 -46 85 -7 14 -15 27 -18 30 -3 3 -11 16 -17 30 -7 14 -28
52 -47 85 -20 33 -40 70 -45 82 -6 12 -21 39 -34 60 -21 34 -56 95 -113 203
-11 19 -22 37 -25 40 -3 3 -9 12 -12 20 -4 8 -25 47 -47 85 -21 39 -45 81 -52
95 -7 14 -30 54 -51 89 -21 35 -43 74 -48 85 -5 12 -13 28 -19 36 -26 40 -121
204 -160 275 -24 44 -47 82 -52 83 -4 2 -8 8 -8 13 0 5 -29 62 -65 126 -36 64
-65 120 -65 125 0 4 -4 8 -8 8 -4 0 -13 12 -19 28 -7 15 -28 54 -47 87 -20 33
-41 72 -47 88 -6 15 -15 27 -19 27 -4 0 -11 12 -15 27 -3 15 -10 30 -15 33 -4
3 -24 37 -44 75 -20 39 -49 93 -64 120 -26 46 -84 152 -128 235 -11 19 -21 37
-24 40 -5 5 -24 38 -64 114 -14 27 -30 54 -35 60 -5 6 -20 31 -33 56 -35 65
-117 209 -145 253 l-23 37 -608 -1 c-334 0 -613 -3 -620 -6z"/>
<path d="M19519 10133 c-8 -10 -23 -34 -33 -53 -11 -19 -22 -37 -25 -40 -3 -3
-14 -21 -25 -40 -50 -93 -101 -185 -156 -280 -35 -61 -48 -83 -101 -177 -24
-43 -175 -300 -189 -323 -6 -8 -22 -37 -36 -65 -15 -27 -30 -52 -33 -55 -4 -3
-17 -25 -30 -50 -13 -25 -36 -64 -52 -88 -16 -24 -29 -45 -29 -47 0 -3 -19
-35 -41 -72 -23 -38 -55 -93 -71 -123 -16 -30 -33 -62 -38 -70 -38 -60 -80
-141 -80 -155 0 -15 76 -153 91 -165 6 -5 204 -332 228 -378 8 -15 17 -29 21
-32 4 -3 27 -38 51 -78 24 -40 52 -85 61 -100 20 -32 46 -78 62 -109 6 -13 14
-23 19 -23 4 0 7 -6 7 -13 0 -8 8 -21 18 -31 18 -16 21 -13 57 46 21 35 41 65
44 68 3 3 11 14 18 25 33 55 80 131 101 164 12 20 25 43 29 51 4 8 16 29 27
45 12 17 27 39 33 50 42 69 80 130 93 150 8 12 35 56 59 96 24 41 47 76 50 79
8 7 29 40 44 70 7 14 34 58 60 98 26 40 47 75 47 78 0 3 10 20 23 37 25 36 41
62 59 97 7 14 15 27 18 30 3 3 17 23 30 45 13 22 26 42 29 45 4 3 11 14 18 25
23 39 78 129 97 159 11 17 24 40 30 51 7 11 32 52 58 91 25 39 53 84 62 100 9
16 28 47 41 69 14 22 28 47 32 55 4 8 9 17 13 20 3 3 17 23 30 45 13 22 27 42
30 45 3 3 11 16 18 30 7 14 21 39 32 55 11 17 27 43 36 59 9 16 37 61 62 100
26 39 52 82 59 96 7 14 21 37 30 51 10 15 38 60 62 100 24 41 48 76 53 77 4 2
8 9 8 15 0 6 7 18 16 28 9 10 13 23 9 28 -4 8 -196 11 -614 11 -567 0 -609 -1
-622 -17z"/>
<path d="M24917 10143 c-4 -3 -7 -816 -7 -1805 l0 -1798 555 0 555 0 -2 1803
-3 1802 -546 3 c-300 1 -549 -1 -552 -5z"/>
<path d="M4790 7330 l0 -500 2088 2 2087 3 3 491 2 491 -952 6 c-524 4 -1465
7 -2090 7 l-1138 0 0 -500z"/>
<path d="M4790 5035 l0 -535 2088 2 2087 3 3 533 2 532 -2090 0 -2090 0 0
-535z"/>
</g>
</svg>
